{
  "accessors": [
    {
      "bufferView": 2,
      "componentType": 5126,
      "count": 22935,
      "max": [
        18.43927001953125,
        3.3230295181274414,
        11.202757835388184
      ],
      "min": [
        -25.627201080322266,
        -104.01158905029297,
        -84.35191345214844
      ],
      "type": "VEC3"
    },
    {
      "bufferView": 2,
      "byteOffset": 275220,
      "componentType": 5126,
      "count": 22935,
      "max": [
        0.0,
        1.0,
        -0.0
      ],
      "min": [
        0.0,
        1.0,
        -0.0
      ],
      "type": "VEC3"
    },
    {
      "bufferView": 0,
      "componentType": 5125,
      "count": 140268,
      "type": "SCALAR"
    },
    {
      "bufferView": 2,
      "byteOffset": 550440,
      "componentType": 5126,
      "count": 1424,
      "max": [
        16.91476058959961,
        1.8249001502990723,
        9.386677742004395
      ],
      "min": [
        -24.968996047973633,
        -102.27838134765625,
        -83.89958953857422
      ],
      "type": "VEC3"
    },
    {
      "bufferView": 2,
      "byteOffset": 567528,
      "componentType": 5126,
      "count": 1424,
      "max": [
        0.0,
        1.0,
        -0.0
      ],
      "min": [
        0.0,
        1.0,
        -0.0
      ],
      "type": "VEC3"
    },
    {
      "bufferView": 0,
      "byteOffset": 561072,
      "componentType": 5125,
      "count": 4752,
      "type": "SCALAR"
    },
    {
      "bufferView": 2,
      "byteOffset": 584616,
      "componentType": 5126,
      "count": 1504,
      "max": [
        0.539097249507904,
        2.5689873695373535,
        -1.7669596672058105
      ],
      "min": [
        0.166484996676445,
        2.348355531692505,
        -2.034979820251465
      ],
      "type": "VEC3"
    },
    {
      "bufferView": 2,
      "byteOffset": 602664,
      "componentType": 5126,
      "count": 1504,
      "max": [
        0.0,
        1.0,
        -0.0
      ],
      "min": [
        0.0,
        1.0,
        -0.0
      ],
      "type": "VEC3"
    },
    {
      "bufferView": 1,
      "componentType": 5126,
      "count": 1504,
      "max": [
        0.7080793380737305,
        0.8910115957260132
      ],
      "min": [
        0.0,
        0.0
      ],
      "type": "VEC2"
    },
    {
      "bufferView": 0,
      "byteOffset": 580080,
      "componentType": 5125,
      "count": 7074,
      "type": "SCALAR"
    },
    {
      "bufferView": 2,
      "byteOffset": 620712,
      "componentType": 5126,
      "count": 15274,
      "max": [
        0.9425908327102661,
        2.537637233734131,
        -0.5096954703330994
      ],
      "min": [
        -0.09298510104417801,
        0.1799183338880539,
        -2.36126446723938
      ],
      "type": "VEC3"
    },
    {
      "bufferView": 2,
      "byteOffset": 804000,
      "componentType": 5126,
      "count": 15274,
      "max": [
        0.0,
        1.0,
        -0.0
      ],
      "min": [
        0.0,
        1.0,
        -0.0
      ],
      "type": "VEC3"
    },
    {
      "bufferView": 1,
      "byteOffset": 12032,
      "componentType": 5126,
      "count": 15274,
      "max": [
        0.9961827993392944,
        0.9939460754394531
      ],
      "min": [
        0.0,
        0.0
      ],
      "type": "VEC2"
    },
    {
      "bufferView": 0,
      "byteOffset": 608376,
      "componentType": 5125,
      "count": 75768,
      "type": "SCALAR"
    },
    {
      "bufferView": 2,
      "byteOffset": 987288,
      "componentType": 5126,
      "count": 2525,
      "max": [
        1.0041650533676147,
        2.1398394107818604,
        2.0981414318084717
      ],
      "min": [
        -1.8692084550857544,
        -0.04342424124479294,
        -3.518251419067383
      ],
      "type": "VEC3"
    },
    {
      "bufferView": 2,
      "byteOffset": 1017588,
      "componentType": 5126,
      "count": 2525,
      "max": [
        0.0,
        1.0,
        -0.0
      ],
      "min": [
        0.0,
        1.0,
        -0.0
      ],
      "type": "VEC3"
    },
    {
      "bufferView": 3,
      "componentType": 5126,
      "count": 2525,
      "max": [
        0.9997895956039429,
        0.9950597882270813,
        0.9996450543403625,
        1.0
      ],
      "min": [
        -0.9999658465385437,
        -0.9990187287330627,
        -0.9995096325874329,
        1.0
      ],
      "type": "VEC4"
    },
    {
      "bufferView": 1,
      "byteOffset": 134224,
      "componentType": 5126,
      "count": 2525,
      "max": [
        0.9996082186698914,
        1.0
      ],
      "min": [
        0.0,
        0.0
      ],
      "type": "VEC2"
    },
    {
      "bufferView": 0,
      "byteOffset": 911448,
      "componentType": 5125,
      "count": 6546,
      "type": "SCALAR"
    },
    {
      "bufferView": 2,
      "byteOffset": 1047888,
      "componentType": 5126,
      "count": 7243,
      "max": [
        1.1283740997314453,
        2.5994677543640137,
        2.750222682952881
      ],
      "min": [
        0.006878525018692017,
        1.4341214895248413,
        1.572402834892273
      ],
      "type": "VEC3"
    },
    {
      "bufferView": 2,
      "byteOffset": 1134804,
      "componentType": 5126,
      "count": 7243,
      "max": [
        0.0,
        1.0,
        -0.0
      ],
      "min": [
        0.0,
        1.0,
        -0.0
      ],
      "type": "VEC3"
    },
    {
      "bufferView": 3,
      "byteOffset": 40400,
      "componentType": 5126,
      "count": 7243,
      "max": [
        0.999517023563385,
        0.9998890161514282,
        0.9997000098228455,
        1.0
      ],
      "min": [
        -0.9992647767066956,
        -0.9999859929084778,
        -0.9937381744384766,
        -1.0
      ],
      "type": "VEC4"
    },
    {
      "bufferView": 1,
      "byteOffset": 154424,
      "componentType": 5126,
      "count": 7243,
      "max": [
        0.9978151321411133,
        0.999556839466095
      ],
      "min": [
        0.029668599367141724,
        0.0
      ],
      "type": "VEC2"
    },
    {
      "bufferView": 0,
      "byteOffset": 937632,
      "componentType": 5125,
      "count": 21456,
      "type": "SCALAR"
    }
  ],
  "asset": {
    "extras": {
      "author": "cherishloveart (https://sketchfab.com/cherishloveart)",
      "license": "CC-BY-4.0 (http://creativecommons.org/licenses/by/4.0/)",
      "source": "https://sketchfab.com/3d-models/floralou-4ad266b2c8374f17ae715796de185838",
      "title": "Floralou"
    },
    "generator": "Sketchfab-13.68.0",
    "version": "2.0"
  },
  "bufferViews": [
    {
      "buffer": 0,
      "byteLength": 1023456,
      "name": "floatBufferViews",
      "target": 34963
    },
    {
      "buffer": 0,
      "byteLength": 212368,
      "byteOffset": 1023456,
      "byteStride": 8,
      "name": "floatBufferViews",
      "target": 34962
    },
    {
      "buffer": 0,
      "byteLength": 1221720,
      "byteOffset": 1235824,
      "byteStride": 12,
      "name": "floatBufferViews",
      "target": 34962
    },
    {
      "buffer": 0,
      "byteLength": 156288,
      "byteOffset": 2457544,
      "byteStride": 16,
      "name": "floatBufferViews",
      "target": 34962
    }
  ],
  "buffers": [
    {
      "byteLength": 2613832,
      "uri": ".bin"
    }
  ],
  "extensionsRequired": [
    "KHR_materials_pbrSpecularGlossiness"
  ],
  "extensionsUsed": [
    "KHR_materials_pbrSpecularGlossiness"
  ],
  "images": [
    {
      "uri": "textures/LPwolfMaterial_diffuse.png"
    },
    {
      "uri": "textures/LPwolfMaterial_normal.png"
    }
  ],
  "materials": [
    {
      "doubleSided": true,
      "emissiveFactor": [
        0.0,
        0.24155899999999855,
        1.0
      ],
      "extensions": {
        "KHR_materials_pbrSpecularGlossiness": {
          "diffuseFactor": [
            0.0,
            0.07395290000000007,
            0.7999999999999999,
            1.0
          ],
          "glossinessFactor": 0.0,
          "specularFactor": [
            0.0,
            0.0,
            0.0
          ]
        }
      },
      "name": "longFlowerMaterial"
    },
    {
      "doubleSided": true,
      "emissiveFactor": [
        0.0,
        1.0,
        1.0
      ],
      "extensions": {
        "KHR_materials_pbrSpecularGlossiness": {
          "diffuseFactor": [
            0.0,
            0.38394099999999964,
            0.7999999999999999,
            1.0
          ],
          "glossinessFactor": 0.5,
          "specularFactor": [
            0.0,
            0.0,
            0.0
          ]
        }
      },
      "name": "longFlowerMiddleMaterial"
    },
    {
      "doubleSided": true,
      "extensions": {
        "KHR_materials_pbrSpecularGlossiness": {
          "diffuseFactor": [
            0.0020154545380561065,
            0.002225729116663944,
            0.0040834895734237295,
            1.0
          ],
          "glossinessFactor": 1.0,
          "specularFactor": [
            0.0,
            0.0,
            0.0
          ]
        }
      },
      "name": "eyesMaterial"
    },
    {
      "doubleSided": true,
      "extensions": {
        "KHR_materials_pbrSpecularGlossiness": {
          "diffuseFactor": [
            0.011158385438650352,
            0.035347924680517624,
            0.1306056010433147,
            1.0
          ],
          "glossinessFactor": 0.14848499999999998,
          "specularFactor": [
            0.0,
            0.0,
            0.0
          ]
        }
      },
      "name": "maneMaterial"
    },
    {
      "doubleSided": true,
      "extensions": {
        "KHR_materials_pbrSpecularGlossiness": {
          "diffuseFactor": [
            1.0,
            1.0,
            1.0,
            1.0
          ],
          "diffuseTexture": {
            "index": 0
          },
          "glossinessFactor": 0.0,
          "specularFactor": [
            0.0,
            0.0,
            0.0
          ]
        }
      },
      "name": "LPwolfMaterial",
      "normalTexture": {
        "index": 1
      }
    }
  ],
  "meshes": [
    {
      "name": "Object_0",
      "primitives": [
        {
          "attributes": {
            "NORMAL": 1,
            "POSITION": 0
          },
          "indices": 2,
          "material": 0,
          "mode": 4
        }
      ]
    },
    {
      "name": "Object_1",
      "primitives": [
        {
          "attributes": {
            "NORMAL": 4,
            "POSITION": 3
          },
          "indices": 5,
          "material": 1,
          "mode": 4
        }
      ]
    },
    {
      "name": "Object_2",
      "primitives": [
        {
          "attributes": {
            "NORMAL": 7,
            "POSITION": 6,
            "TEXCOORD_0": 8
          },
          "indices": 9,
          "material": 2,
          "mode": 4
        }
      ]
    },
    {
      "name": "Object_3",
      "primitives": [
        {
          "attributes": {
            "NORMAL": 11,
            "POSITION": 10,
            "TEXCOORD_0": 12
          },
          "indices": 13,
          "material": 3,
          "mode": 4
        }
      ]
    },
    {
      "name": "Object_4",
      "primitives": [
        {
          "attributes": {
            "NORMAL": 15,
            "POSITION": 14,
            "TANGENT": 16,
            "TEXCOORD_0": 17
          },
          "indices": 18,
          "material": 4,
          "mode": 4
        }
      ]
    },
    {
      "name": "Object_5",
      "primitives": [
        {
          "attributes": {
            "NORMAL": 20,
            "POSITION": 19,
            "TANGENT": 21,
            "TEXCOORD_0": 22
          },
          "indices": 23,
          "material": 4,
          "mode": 4
        }
      ]
    }
  ],
  "nodes": [
    {
      "children": [
        1
      ],
      "matrix": [
        1.0,
        0.0,
        0.0,
        0.0,
        0.0,
        2.220446049250313e-16,
        -1.0,
        0.0,
        0.0,
        1.0,
        2.220446049250313e-16,
        0.0,
        0.0,
        0.0,
        0.0,
        1.0
      ],
      "name": "Sketchfab_model"
    },
    {
      "children": [
        2
      ],
      "name": "root"
    },
    {
      "children": [
        3,
        6,
        8,
        10,
        12
      ],
      "matrix": [
        1.0,
        0.0,
        0.0,
        0.0,
        0.0,
        2.220446049250313e-16,
        1.0,
        0.0,
        0.0,
        -1.0,
        2.220446049250313e-16,
        0.0,
        0.0,
        0.0,
        0.0,
        1.0
      ],
      "name": "GLTF_SceneRootNode"
    },
    {
      "children": [
        4,
        5
      ],
      "matrix": [
        -0.056577288685337526,
        0.0008971904138447807,
        -0.000570966577341455,
        0.0,
        0.0004320620751044689,
        0.018405233420527797,
        -0.01389205967296907,
        0.0,
        -8.477505987922567e-05,
        -0.034092227563587964,
        -0.04517055418663934,
        0.0,
        -0.4548291563987732,
        0.7949381470680237,
        -2.9585020542144775,
        1.0
      ],
      "name": "longFlowerBase.016_0"
    },
    {
      "mesh": 0,
      "name": "Object_4"
    },
    {
      "mesh": 1,
      "name": "Object_5"
    },
    {
      "children": [
        7
      ],
      "matrix": [
        1.0,
        0.0,
        0.0,
        0.0,
        0.0,
        -1.685873969314855e-07,
        0.9999999999999858,
        0.0,
        0.0,
        -0.9999999999999858,
        -1.685873969314855e-07,
        0.0,
        0.0,
        0.0,
        0.0,
        1.0
      ],
      "name": "eye_1"
    },
    {
      "mesh": 2,
      "name": "Object_7"
    },
    {
      "children": [
        9
      ],
      "matrix": [
        1.0,
        0.0,
        0.0,
        0.0,
        0.0,
        -1.685873969314855e-07,
        0.9999999999999858,
        0.0,
        0.0,
        -0.9999999999999858,
        -1.685873969314855e-07,
        0.0,
        0.0,
        0.0,
        0.0,
        1.0
      ],
      "name": "LPmane_2"
    },
    {
      "mesh": 3,
      "name": "Object_9"
    },
    {
      "children": [
        11
      ],
      "name": "LPfloralou body_3"
    },
    {
      "mesh": 4,
      "name": "Object_11"
    },
    {
      "children": [
        13
      ],
      "name": "LPfloralou head_4"
    },
    {
      "mesh": 5,
      "name": "Object_13"
    }
  ],
  "samplers": [
    {
      "magFilter": 9729,
      "minFilter": 9987,
      "wrapS": 10497,
      "wrapT": 10497
    }
  ],
  "scene": 0,
  "scenes": [
    {
      "name": "Sketchfab_Scene",
      "nodes": [
        0
      ]
    }
  ],
  "textures": [
    {
      "sampler": 0,
      "source": 0
    },
    {
      "sampler": 0,
      "source": 1
    }
  ]
}
